#N canvas 480 63 776 431 10;
#X floatatom 24 130 5 0 0 0 - - -;
#X floatatom 67 130 5 0 0 0 - - -;
#X floatatom 112 129 5 0 0 0 - - -;
#X obj 159 185 bng 15 250 50 0 empty empty empty 17 7 0 10 -262144
-1 -1;
#X obj 25 184 pack 0 0 0;
#X text 180 153 Bang in right inlet re-initializes \, as does bang
sent to "dn.node" (see above);
#X obj 45 157 bng 15 250 50 0 empty empty empty 17 7 0 10 -262144 -1
-1;
#X obj 80 159 bng 15 250 50 0 empty empty empty 17 7 0 10 -262144 -1
-1;
#X obj 25 215 dn.mapnode 500 3 2;
#X obj 24 81 pv dn-clientName PdClient;
#X text 6 237 Arguments: node id \, number of slots \, minibee id;
#X text 274 35 MAPPING A DATANODE TO A MINIBEE OUTPUT MAKE SURE THAT
THE NUMBER OF SLOTS IS EQUAL TO THE NUMBER OF OUTPUTS OF THE MINIBEE
;
#X obj 21 45 pv dn-host 192.168.0.197;
#X obj 242 132 s dn.node;
#X obj 241 108 bng 15 250 50 0 empty empty empty 17 7 0 10 -262144
-1 -1;
#X obj 336 106 cnv 10 400 20 empty empty Important! 5 10 0 14 -261234
-86277 0;
#X text 492 103 Re-init after changing client name;
#X text 260 104 <---------;
#X obj 27 322 prepend set;
#X msg 27 371 0 0 0;
#X obj 27 270 bng 15 250 50 0 empty empty empty 17 7 0 10 -262144 -1
-1;
#X text 35 347 data here matches the data sent to makenode;
#X text 172 292 Arguments: node id;
#X obj 27 293 dn.node 500;
#X obj 461 266 r senseworld.local;
#X obj 461 333 bng 15 250 50 0 empty empty empty 17 7 0 10 -262144
-1 -1;
#X obj 564 336 print SENSEWORLD;
#X obj 461 300 route /ping;
#X text 460 233 Print messages from the server;
#X connect 0 0 4 0;
#X connect 1 0 4 1;
#X connect 1 0 6 0;
#X connect 2 0 4 2;
#X connect 2 0 7 0;
#X connect 3 0 8 1;
#X connect 4 0 8 0;
#X connect 6 0 4 0;
#X connect 7 0 4 0;
#X connect 14 0 13 0;
#X connect 18 0 19 0;
#X connect 20 0 23 0;
#X connect 23 0 18 0;
#X connect 24 0 27 0;
#X connect 24 0 26 0;
#X connect 27 0 25 0;
