#N canvas 589 77 572 302 10;
#X declare -lib moocow;
#X declare -lib list-abs;
#X declare -lib mrpeach;
#X obj 41 29 inlet;
#X obj 81 29 r host;
#X obj 44 223 outlet;
#X obj 88 223 print DataNetworkServer_port;
#X text 216 162 Joseph Malloch/;
#X text 216 173 Joseph Thibodeau;
#X text 216 185 IDMIL 2009;
#X text 217 196 www.idmil.org;
#X obj 41 145 http_get;
#X msg 41 116 get \$1;
#X obj 41 58 tosymbol;
#X obj 41 87 makefilename http://%s/SenseWorldDataNetwork;
#X obj 67 168 r senseworld.defaultport;
#X connect 0 0 10 0;
#X connect 1 0 10 0;
#X connect 8 0 2 0;
#X connect 8 0 3 0;
#X connect 9 0 8 0;
#X connect 10 0 11 0;
#X connect 11 0 9 0;
#X connect 12 0 2 0;
