#N canvas 119 49 1090 582 10;
#X declare -lib moocow;
#X declare -lib list-abs;
#X declare -lib mrpeach;
#X obj 770 292 loadbang;
#X obj 770 369 s \$0_nodeName;
#X obj 29 420 r \$0_nodeName;
#X obj 29 444 prepend set /unregister 6010;
#X obj 28 398 loadbang;
#X obj 36 530 prepend set /register 6010;
#X obj 35 491 r \$0_nodeName;
#X obj 565 302 inlet;
#X obj 36 140 outlet;
#X obj 186 134 bng 15 250 50 0 empty empty empty 17 7 0 10 -262144
-1 -1;
#X obj 287 187 bng 15 250 50 0 empty empty empty 17 7 0 10 -262144
-1 -1;
#X obj 386 170 route /register;
#N canvas 100 299 226 277 filter 0;
#X obj 49 58 inlet;
#X obj 76 224 outlet;
#X obj 76 119 zl nth 1;
#X obj 49 91 t l l;
#X obj 76 173 sel 1;
#X obj 76 198 zl reg;
#X obj 75 148 == \$1;
#X connect 0 0 3 0;
#X connect 2 0 6 0;
#X connect 2 1 5 1;
#X connect 3 1 2 0;
#X connect 4 0 5 0;
#X connect 5 0 1 0;
#X connect 6 0 4 0;
#X restore 36 116 pd filter;
#X obj 539 184 zl nth 2;
#X obj 565 341 bng 15 250 50 0 empty empty empty 17 7 0 10 -262144
-1 -1;
#X obj 610 302 r dn.node;
#X obj 507 302 loadbang;
#X text 472 340 need to defer?;
#X obj 592 417 dn.netport;
#X obj 36 85 route /data/node;
#X obj 186 102 route /ping;
#X obj 287 119 route /registered;
#X obj 539 160 route /unsubscribed/node;
#X obj 727 177 route /datanetwork/announce;
#X obj 539 257 sel 1;
#X obj 565 518 prepend set;
#X obj 562 390 t a a;
#X obj 565 445 zl join;
#X obj 565 494 prepend connect;
#X obj 565 365 pv dn-host;
#X obj 287 467 prepend send;
#X obj 36 36 s senseworld.local;
#X obj 36 62 r senseworld.local;
#X msg 565 541 connect 127.0.0.1;
#X text 81 140 data;
#X text 529 27 !!!! The parent patcher needs an object called "pv dn-host
<IP of host>" !!!!;
#X obj 886 204 route /unregistered;
#X obj 386 143 route /error;
#X obj 36 14 dumpOSC 6010;
#X obj 82 380 prepend /unsubscribe/node 6010;
#X obj 886 236 select 6010;
#X obj 287 322 prepend /subscribe/node 6010;
#X msg 186 302 /pong 6010 PdClient;
#X msg 21 464 /unregister 6010 PdClient;
#X obj 390 530 print NODE_\$0;
#X obj 145 221 r \$0_nodeName;
#X obj 145 245 prepend set /pong 6010;
#X obj 380 410 route send;
#X obj 408 456 route /pong;
#X text 529 73 Joseph Malloch & Thibodeau / IDMIL 2009 / www.idmil.org
;
#X obj 22 230 i \$2;
#X obj 21 317 spigot;
#X obj 22 204 closebang;
#X obj 21 253 t b b;
#X obj 54 295 dn.freeclear;
#X obj 287 515 sel 1;
#X msg 123 500 /register 6010 PdClient;
#X obj 770 318 pv dn-clientName;
#X obj 770 344 symbol;
#X obj 539 233 == \$1;
#X obj 287 274 i \$1;
#X obj 358 241 r \$0_nodeName;
#X obj 358 264 prepend set;
#X obj 287 297 prepend xxx;
#X obj 82 322 i \$1;
#X obj 82 351 prepend xxx;
#X obj 164 332 r \$0_nodeName;
#X obj 164 355 prepend set;
#X obj 281 546 delay 1000;
#X obj 504 534 bng 15 250 50 0 empty empty empty 17 7 0 10 -262144
-1 -1;
#X obj 287 491 sendOSC 57120;
#X obj 684 422 print retrieving port;
#X obj 707 469 print found port;
#X connect 0 0 57 0;
#X connect 2 0 3 0;
#X connect 3 0 43 0;
#X connect 5 0 56 0;
#X connect 6 0 5 0;
#X connect 7 0 14 0;
#X connect 9 0 42 0;
#X connect 10 0 60 0;
#X connect 11 0 10 0;
#X connect 12 0 8 0;
#X connect 13 0 59 0;
#X connect 14 0 29 0;
#X connect 14 0 57 0;
#X connect 15 0 14 0;
#X connect 16 0 14 0;
#X connect 18 0 27 1;
#X connect 18 0 72 0;
#X connect 19 0 12 0;
#X connect 19 1 20 0;
#X connect 20 0 9 0;
#X connect 20 1 21 0;
#X connect 21 0 10 0;
#X connect 21 1 37 0;
#X connect 22 0 13 0;
#X connect 22 1 23 0;
#X connect 23 0 14 0;
#X connect 23 1 36 0;
#X connect 24 0 60 0;
#X connect 25 0 33 0;
#X connect 26 0 27 0;
#X connect 26 1 18 0;
#X connect 26 1 71 0;
#X connect 27 0 28 0;
#X connect 28 0 25 0;
#X connect 28 0 44 0;
#X connect 28 0 69 0;
#X connect 28 0 70 0;
#X connect 29 0 26 0;
#X connect 30 0 47 0;
#X connect 30 0 70 0;
#X connect 32 0 19 0;
#X connect 36 0 40 0;
#X connect 37 0 11 0;
#X connect 37 1 22 0;
#X connect 38 0 31 0;
#X connect 39 0 30 0;
#X connect 40 0 14 0;
#X connect 41 0 30 0;
#X connect 42 0 30 0;
#X connect 43 0 30 0;
#X connect 45 0 46 0;
#X connect 46 0 42 0;
#X connect 47 0 48 0;
#X connect 48 1 44 0;
#X connect 50 0 53 0;
#X connect 51 0 43 0;
#X connect 52 0 50 0;
#X connect 53 0 51 0;
#X connect 53 1 64 0;
#X connect 54 0 51 1;
#X connect 55 0 56 0;
#X connect 56 0 30 0;
#X connect 57 0 58 0;
#X connect 58 0 1 0;
#X connect 59 0 24 0;
#X connect 60 0 63 0;
#X connect 61 0 62 0;
#X connect 62 0 63 0;
#X connect 63 0 41 0;
#X connect 64 0 65 0;
#X connect 65 0 39 0;
#X connect 66 0 67 0;
#X connect 67 0 65 0;
#X connect 68 0 56 0;
#X connect 69 0 68 0;
#X connect 70 0 55 0;
