#N canvas 636 173 489 199 10;
#X declare -lib moocow;
#X declare -lib list-abs;
#X declare -lib mrpeach;
#X obj 41 29 inlet;
#X obj 81 29 r host;
#X obj 41 149 outlet;
#X obj 85 149 print DataNetworkServer_port;
#X text 213 88 Joseph Malloch/;
#X text 213 99 Joseph Thibodeau;
#X text 213 111 IDMIL 2009;
#X text 214 122 www.idmil.org;
#X obj 136 111 fromsymbol;
#X msg 46 57 get http://%s/SenseWorldDataNetwork;
#X obj 41 91 http_get;
#X obj 305 155 print http get message;
#X connect 0 0 9 0;
#X connect 1 0 9 0;
#X connect 9 0 10 0;
#X connect 9 0 11 0;
#X connect 10 0 2 0;
#X connect 10 0 3 0;
