#N canvas 277 68 909 556 10;
#X obj 89 27 dumpOSC 6011;
#X text 253 82 info about minibees;
#X obj 281 103 print;
#X text 93 97 routing data;
#X text 37 147 data from minibee 1;
#X text 376 145 data from minibee 2;
#X obj 53 3 bng 15 250 50 0 empty empty empty 17 7 0 10 -262144 -1
-1;
#X obj 86 121 route 1 2;
#X floatatom 18 212 5 0 0 0 - - -;
#X floatatom 62 213 5 0 0 0 - - -;
#X floatatom 107 215 5 0 0 0 - - -;
#X obj 411 176 unpack f f f;
#X floatatom 391 211 5 0 0 0 - - -;
#X floatatom 435 212 5 0 0 0 - - -;
#X floatatom 480 214 5 0 0 0 - - -;
#X obj 238 505 sendOSC 57600;
#X floatatom 328 382 5 0 0 0 - - -;
#X obj 410 519 print;
#X obj 308 283 bng 15 250 50 0 empty empty empty 17 7 0 10 -262144
-1 -1;
#X msg 213 377 1;
#X text 212 349 minibee id;
#X floatatom 246 401 5 0 0 0 - - -;
#X msg 8 356 connect localhost 57600;
#X msg 248 375 2;
#X text 339 314 data to send to pwm;
#X obj 341 339 hsl 128 15 0 255 0 0 empty empty empty -2 -8 0 10 -262144
-1 -1 0 1;
#X obj 334 358 int;
#X obj 287 388 bng 15 250 50 0 empty empty empty 17 7 0 10 -262144
-1 -1;
#X text 54 277 SENDING DATA TO A MINIBEE;
#X obj 539 329 tgl 15 0 empty empty empty 17 7 0 10 -262144 -1 -1 0
1;
#X obj 573 332 tgl 15 0 empty empty empty 17 7 0 10 -262144 -1 -1 0
1;
#X obj 608 330 tgl 15 0 empty empty empty 17 7 0 10 -262144 -1 -1 0
1;
#X floatatom 539 380 5 0 0 0 - - -;
#X floatatom 581 381 5 0 0 0 - - -;
#X floatatom 626 381 5 0 0 0 - - -;
#X obj 246 434 pack 0 0 0 0 0 0 0 0 0 0;
#X msg 256 463 send /minibee/output \$1 \$2 \$3 \$4 \$5 \$6 \$7 \$8
\$9 \$10;
#X text 546 301 data to send to digital out;
#X obj 88 58 route /minibee/data /minibee/info /minibee/status;
#X obj 474 103 print;
#X text 446 82 status of minibees;
#X obj 38 177 unpack f f f f f f f;
#X floatatom 153 212 5 0 0 0 - - -;
#X floatatom 197 213 5 0 0 0 - - -;
#X floatatom 242 215 5 0 0 0 - - -;
#X floatatom 286 215 5 0 0 0 - - -;
#X connect 0 0 38 0;
#X connect 6 0 38 0;
#X connect 7 0 41 0;
#X connect 7 1 11 0;
#X connect 11 0 12 0;
#X connect 11 1 13 0;
#X connect 11 2 14 0;
#X connect 16 0 27 0;
#X connect 16 0 35 3;
#X connect 16 0 35 4;
#X connect 16 0 35 5;
#X connect 16 0 35 6;
#X connect 16 0 35 2;
#X connect 16 0 35 1;
#X connect 18 0 25 0;
#X connect 18 0 21 0;
#X connect 19 0 21 0;
#X connect 21 0 35 0;
#X connect 22 0 15 0;
#X connect 23 0 21 0;
#X connect 25 0 26 0;
#X connect 26 0 16 0;
#X connect 27 0 35 0;
#X connect 29 0 32 0;
#X connect 30 0 33 0;
#X connect 31 0 34 0;
#X connect 32 0 35 7;
#X connect 33 0 35 8;
#X connect 34 0 35 9;
#X connect 35 0 36 0;
#X connect 36 0 15 0;
#X connect 36 0 17 0;
#X connect 38 0 7 0;
#X connect 38 1 2 0;
#X connect 38 2 39 0;
#X connect 41 0 8 0;
#X connect 41 1 9 0;
#X connect 41 2 10 0;
#X connect 41 3 42 0;
#X connect 41 4 43 0;
#X connect 41 5 44 0;
#X connect 41 6 45 0;
