#N canvas 93 54 1252 659 10;
#X obj 89 27 dumpOSC 6011;
#X text 253 82 info about minibees;
#X text 93 97 routing data;
#X text 37 147 data from minibee 1;
#X text 376 145 data from minibee 2;
#X obj 53 3 bng 15 250 50 0 empty empty empty 17 7 0 10 -262144 -1
-1;
#X obj 86 121 route 1 2;
#X floatatom 18 212 5 0 0 0 - - -;
#X floatatom 62 213 5 0 0 0 - - -;
#X floatatom 107 215 5 0 0 0 - - -;
#X obj 411 176 unpack f f f;
#X floatatom 391 211 5 0 0 0 - - -;
#X floatatom 435 212 5 0 0 0 - - -;
#X floatatom 480 214 5 0 0 0 - - -;
#X obj 260 633 sendOSC 57600;
#X floatatom 332 494 5 0 0 0 - - -;
#X obj 414 631 print;
#X obj 312 395 bng 15 250 50 0 empty empty empty 17 7 0 10 -262144
-1 -1;
#X msg 217 489 1;
#X text 216 461 minibee id;
#X floatatom 250 513 5 0 0 0 - - -;
#X msg 12 468 connect localhost 57600;
#X msg 252 487 2;
#X text 343 426 data to send to pwm;
#X obj 345 451 hsl 128 15 0 255 0 0 empty empty empty -2 -8 0 10 -262144
-1 -1 0 1;
#X obj 338 470 int;
#X obj 291 500 bng 15 250 50 0 empty empty empty 17 7 0 10 -262144
-1 -1;
#X text 58 389 SENDING DATA TO A MINIBEE;
#X obj 543 441 tgl 15 0 empty empty empty 17 7 0 10 -262144 -1 -1 0
1;
#X obj 577 444 tgl 15 0 empty empty empty 17 7 0 10 -262144 -1 -1 0
1;
#X obj 612 442 tgl 15 0 empty empty empty 17 7 0 10 -262144 -1 -1 0
1;
#X floatatom 543 492 5 0 0 0 - - -;
#X floatatom 585 493 5 0 0 0 - - -;
#X floatatom 630 493 5 0 0 0 - - -;
#X obj 250 546 pack 0 0 0 0 0 0 0 0 0 0;
#X msg 260 575 send /minibee/output \$1 \$2 \$3 \$4 \$5 \$6 \$7 \$8
\$9 \$10;
#X text 550 413 data to send to digital out;
#X obj 88 58 route /minibee/data /minibee/info /minibee/status;
#X text 446 82 status of minibees;
#X obj 38 177 unpack f f f f f f f;
#X floatatom 153 212 5 0 0 0 - - -;
#X floatatom 197 213 5 0 0 0 - - -;
#X floatatom 242 215 5 0 0 0 - - -;
#X floatatom 286 215 5 0 0 0 - - -;
#X obj 651 114 vsl 15 128 0 255 0 0 empty empty empty 0 -9 0 10 -262144
-1 -1 0 1;
#X obj 651 267 timeroll;
#X obj 474 103 print MINIBEE_STATUS;
#X obj 281 103 print MINIBEE_INFO;
#X msg 921 196 send /minibee/configuration \$1 \$2;
#X msg 900 106 1;
#X text 899 78 minibee id;
#X floatatom 933 130 5 0 0 0 - - -;
#X msg 935 104 2;
#X obj 921 169 pack 0 0;
#X msg 1007 106 1;
#X floatatom 1030 147 5 0 0 0 - - -;
#X msg 1042 104 2;
#X text 1006 78 configuration id;
#X msg 1075 104 3;
#X obj 960 240 print minibee_configuration;
#X text 917 40 CONFIGURING A MINIBEE;
#X msg 908 370 send /minihive/configuration/save \$1;
#X obj 953 420 print save_configuration;
#X symbolatom 908 338 10 0 0 0 - - -;
#X msg 908 301 symbol myconfiguration.xml;
#X connect 0 0 37 0;
#X connect 5 0 37 0;
#X connect 6 0 39 0;
#X connect 6 1 10 0;
#X connect 7 0 44 0;
#X connect 10 0 11 0;
#X connect 10 1 12 0;
#X connect 10 2 13 0;
#X connect 15 0 26 0;
#X connect 15 0 34 3;
#X connect 15 0 34 4;
#X connect 15 0 34 5;
#X connect 15 0 34 6;
#X connect 15 0 34 2;
#X connect 15 0 34 1;
#X connect 17 0 24 0;
#X connect 17 0 20 0;
#X connect 18 0 20 0;
#X connect 20 0 34 0;
#X connect 21 0 14 0;
#X connect 22 0 20 0;
#X connect 24 0 25 0;
#X connect 25 0 15 0;
#X connect 26 0 34 0;
#X connect 28 0 31 0;
#X connect 29 0 32 0;
#X connect 30 0 33 0;
#X connect 31 0 34 7;
#X connect 32 0 34 8;
#X connect 33 0 34 9;
#X connect 34 0 35 0;
#X connect 35 0 14 0;
#X connect 35 0 16 0;
#X connect 37 0 6 0;
#X connect 37 1 47 0;
#X connect 37 2 46 0;
#X connect 39 0 7 0;
#X connect 39 1 8 0;
#X connect 39 2 9 0;
#X connect 39 3 40 0;
#X connect 39 4 41 0;
#X connect 39 5 42 0;
#X connect 39 6 43 0;
#X connect 44 0 45 0;
#X connect 48 0 59 0;
#X connect 48 0 14 0;
#X connect 49 0 51 0;
#X connect 51 0 53 0;
#X connect 52 0 51 0;
#X connect 53 0 48 0;
#X connect 54 0 55 0;
#X connect 55 0 53 1;
#X connect 56 0 55 0;
#X connect 58 0 55 0;
#X connect 61 0 62 0;
#X connect 61 0 14 0;
#X connect 63 0 61 0;
#X connect 64 0 63 0;
