#N canvas 791 432 450 300 10;
#X obj 100 6 loadbang;
#X obj 100 58 i \$0;
#X msg 100 81 store \$1 node;
#X msg 218 134 remove \$1;
#X obj 218 113 i \$0;
#X obj 191 40 closebang;
#X obj 191 63 t b b;
#X msg 191 86 length;
#X obj 100 232 outlet;
#X obj 100 152 coll dn;
#C restore;
#X obj 100 26 t b b;
#X obj 100 180 == 1;
#X obj 262 40 s freeclear;
#X obj 231 64 r freeclear;
#X text 147 237 blocks early unregistration messages;
#X connect 0 0 10 0;
#X connect 1 0 2 0;
#X connect 2 0 9 0;
#X connect 3 0 9 0;
#X connect 4 0 3 0;
#X connect 5 0 6 0;
#X connect 5 0 12 0;
#X connect 6 0 7 0;
#X connect 6 1 4 0;
#X connect 7 0 9 0;
#X connect 9 0 11 0;
#X connect 10 0 7 0;
#X connect 10 1 1 0;
#X connect 11 0 8 0;
#X connect 13 0 7 0;
